# xmcd
#
# Track frame offsets:
#	150
#	15765
#	42118
#	65882
#	90461
#	110805
#	129528
#	145364
#	169743
#	195824
#
# Disc length: 2930 seconds
#
# Revision: 0
# Processed by: cddbd v1.4PL0 Copyright (c) Steve Scherf et al.
# Submitted via: audiograbber 1.81.02
#
DISCID=800b700a
DTITLE=Brienn Perry - Positively
DYEAR=1900
DGENRE=Blues
TTITLE0=What Is This Thing Called Love
TTITLE1=The Days Of Wine and Roses
TTITLE2=Embraceable You
TTITLE3=Make Someone Happy
TTITLE4=All of You
TTITLE5=Teach Me Tonight
TTITLE6=Sweet Lorraine
TTITLE7=I Remember You
TTITLE8=Please Send Me Someone To Love
TTITLE9=Night and Day
EXTD=
EXTT0=
EXTT1=
EXTT2=
EXTT3=
EXTT4=
EXTT5=
EXTT6=
EXTT7=
EXTT8=
EXTT9=
PLAYORDER=
